<svg width="1440" height="30" viewBox="0 0 1440 30" fill="none" xmlns="http://www.w3.org/2000/svg">
<path fill-rule="evenodd" clip-rule="evenodd" d="M1370.37 11.2657L1370.35 11.2455H1375.34L1375.32 11.2657H1370.37ZM1368.72 18.027H1376.98L1372.85 13.9185L1375.32 11.2657H1440V29.3062H0.000732422V11.2597H203.913L209.653 5.1975H219.343L231.319 18.027L231.337 18.0098L231.35 18.027L238.228 11.2657H347.431L349.904 13.9185L345.773 18.027H354.026L349.904 13.9185L352.383 11.2657H413.668L417.188 7.9335L424.123 1.0185L428.747 5.2995L452.182 5.29125H455.939L465.434 14.9872H490.657L496.086 9.71775L551.782 9.74625L556.11 13.9155L562.597 7.4475L564.765 9.74625L688.636 9.71775L698.207 0.0494995L716.245 18.027L716.25 18.018L716.259 18.027L723.048 11.2597H725.93L727.504 12.8295L725.003 15.3142H729.995L727.504 12.8295L729.05 11.2913L787.5 11.2672V11.2597L798.023 11.2627L804 11.2597V11.2642L919.45 11.2913L920.995 12.8295L918.505 15.3142H923.498L920.995 12.8295L922.57 11.2597H925.452L932.242 18.027L932.25 18.018L932.255 18.027L950.293 0.0494995L959.864 9.71775L1026.73 9.74625L1028.9 7.4475L1035.39 13.9155L1039.72 9.79275L1226.66 9.76425L1232.09 14.9872H1257.32L1266.81 5.244L1294 5.25225L1298.63 1.0185L1305.56 7.9335L1309.08 11.2657H1370.37L1372.85 13.9185L1368.72 18.027ZM256.218 14.1427H254.917V18.027H256.218V14.1427ZM258.186 14.1427H256.888V18.027H258.186V14.1427ZM267.277 14.1427H265.98V18.027H267.277V14.1427ZM282.876 14.1427H278.98V18.027H282.876V14.1427ZM438.506 9.261H437.206V10.5547H438.506V9.261ZM443.487 9.261H442.186V13.1445H443.487V9.261ZM453.563 9.261H452.263V10.5547H453.563V9.261ZM453.563 11.8515H452.263V13.1445H453.563V11.8515ZM1270.49 9.261H1269.19V10.5547H1270.49V9.261ZM1270.49 11.8515H1269.19V13.1445H1270.49V11.8515ZM1280.56 9.261H1279.26V13.1445H1280.56V9.261ZM1285.54 9.261H1284.24V10.5547H1285.54V9.261ZM565.667 4.482L562.597 7.4475L559.519 4.482H565.667ZM1031.98 4.482L1028.9 7.4475L1025.83 4.482H1031.98Z" fill="#101214"/>
</svg>
