<svg width="215" height="205" viewBox="0 0 215 205" fill="none" xmlns="http://www.w3.org/2000/svg">
<path d="M196.805 184.298L197.283 184.288L197.295 183.811C197.397 179.832 197.336 160.692 197.234 147.733V147.545L202.789 141.628L214.5 129.155V130.282L203.255 142.238L203.255 142.238L198.071 147.76L197.935 147.904V148.102C197.935 149.052 197.952 151.674 197.973 155.106C197.993 158.304 198.017 162.204 198.037 166.113C198.067 175.509 198.067 180.215 198.017 182.617C197.991 183.827 197.953 184.425 197.906 184.739C197.882 184.894 197.861 184.946 197.856 184.957C197.855 184.958 197.854 184.959 197.851 184.962C197.848 184.966 197.843 184.972 197.833 184.982C197.825 184.99 197.819 184.995 197.815 184.999C197.8 185.005 197.755 185.019 197.652 185.035C197.377 185.078 196.85 185.111 195.765 185.134C193.612 185.18 189.387 185.185 180.919 185.196H180.918C175.286 185.21 168.239 185.206 159.87 185.201C155.151 185.199 150.012 185.196 144.47 185.196C119.764 185.175 95.1014 185.11 91.8833 185.088L91.665 185.087L91.5155 185.246L79.3655 198.187L77.6909 199.971L77.1705 199.398L77.6848 198.85L91.3876 184.255H91.5142C125.691 184.341 189.386 184.449 196.805 184.298Z" fill="url(#paint0_linear_47_197)" stroke="#101214"/>
<path d="M31.6765 198.573H41.275L47.3095 205H37.711L31.6765 198.573Z" fill="url(#paint1_linear_47_197)"/>
<path d="M15.8613 198.573H25.4396L31.4741 205H21.8958L15.8613 198.573Z" fill="url(#paint2_linear_47_197)"/>
<path d="M0.0461426 198.573H9.64465L15.6791 205H6.08064L0.0461426 198.573Z" fill="url(#paint3_linear_47_197)"/>
<path d="M214.433 33.8314V44.0549L208.398 50.4823V40.2588L214.433 33.8314Z" fill="#F6D20E"/>
<path d="M214.433 16.9863V27.2098L208.398 33.6372V23.4137L214.433 16.9863Z" fill="#050505"/>
<path d="M214.433 0.141174V10.3647L208.398 16.7922V6.56863L214.433 0.141174Z" fill="black"/>
<path d="M50.0232 198.508H105.123L112.272 190.894H203.761V142.71L203.619 142.559L202.425 141.286L197.646 136.196V65.8824L215 47.4196V205H56.1184L50.0232 198.508Z" fill="url(#paint4_linear_47_197)"/>
<path d="M209.654 104.792V112.126L205.32 116.741V109.408L209.654 104.792Z" fill="white"/>
<path d="M209.654 92.6921V100.025L205.32 104.641V97.3078L209.654 92.6921Z" fill="white"/>
<path d="M209.654 80.6137V87.9255L205.32 92.5412V85.2078L209.654 80.6137Z" fill="white"/>
<path d="M147.081 200.341H140.196L135.883 195.725H142.768L147.081 200.341Z" fill="white"/>
<path d="M158.442 200.341H151.557L147.223 195.725H154.108L158.442 200.341Z" fill="white"/>
<path d="M169.802 200.341H162.917L158.583 195.725H165.468L169.802 200.341Z" fill="white"/>
<defs>
<linearGradient id="paint0_linear_47_197" x1="215" y1="164.279" x2="76.4861" y2="164.279" gradientUnits="userSpaceOnUse">
<stop offset="0.2179" stop-color="#F6D20E"/>
<stop offset="1" stop-color="#F6D20E"/>
</linearGradient>
<linearGradient id="paint1_linear_47_197" x1="47.3045" y1="201.783" x2="31.6821" y2="201.783" gradientUnits="userSpaceOnUse">
<stop offset="0.2179" stop-color="#F6D20E"/>
<stop offset="1" stop-color="#F6D20E"/>
</linearGradient>
<linearGradient id="paint2_linear_47_197" x1="31.4832" y1="201.783" x2="15.8607" y2="201.783" gradientUnits="userSpaceOnUse">
<stop offset="0.2179" stop-color="#F6D20E"/>
<stop offset="1" stop-color="#F6D20E"/>
</linearGradient>
<linearGradient id="paint3_linear_47_197" x1="15.6702" y1="201.783" x2="0.0476418" y2="201.783" gradientUnits="userSpaceOnUse">
<stop offset="0.2179" stop-color="#F6D20E"/>
<stop offset="1" stop-color="#F6D20E"/>
</linearGradient>
<linearGradient id="paint4_linear_47_197" x1="215" y1="126.206" x2="50.0148" y2="126.206" gradientUnits="userSpaceOnUse">
<stop offset="0.2179" stop-color="#F6D20E"/>
<stop offset="1" stop-color="#F6D20E"/>
</linearGradient>
</defs>
</svg>
